<svg id="Layer_1" data-name="Layer 1" xmlns="http://www.w3.org/2000/svg" viewBox="0 0 1619.01 477.4"><defs><style>.cls-1{fill:#26265c;}</style></defs><path class="cls-1" d="M49.24,271.2v-5.71h7.81c8.42,0,12.33-2.4,16.24-7.51,2.7-3.31,3.91-11.13,3.91-23.75V98c0-12.63-1.51-20.44-3.91-23.75-4.21-5.11-7.82-7.82-16.54-7.82H49.24V61.06h95s83-4.51,83,55c0,0,3.31,33.66-37.28,47.5,0,0,44.79,8.71,44.79,51.1,0,42.08-37.57,56.52-90.49,56.52h-95Zm61.33-15h29.16c17.13,0,61.93-1.8,61.93-40.57,0-17.15-9.62-46.9-46.9-46.9V154.85c18.94,0,41.79-3.3,41.79-38.48,0-41.48-36.68-41.48-56.82-41.48H110.57Z"/><path class="cls-1" d="M549.29,265.49h7.82v5.71H497.28L419.72,154.85h26.15c40.28,0,58.63-11.42,58.63-38.48,0-35.17-35-48.39-55.88-48.39H380.15V61.06h67.52c14.44,0,83-1.2,83,55,0,33.66-18,52-75.16,52.61l50.81,74.85C513.81,252.56,538.47,265.49,549.29,265.49Z"/><path class="cls-1" d="M916.88,265.49h7.52v5.71H834.51v-5.71h7.82c24,0,22.54-16.84,18.33-30.37L806.25,104.35,750,234.23c-5.12,12.62,6.6,31.26,20.44,31.26H778v5.71H703.43v-5.71H711c8.42,0,18.94-19,24.65-30.37L811.36,56.25H818l75.45,181.27C897.94,248.05,906.06,265.49,916.88,265.49Z"/><path class="cls-1" d="M1033.15,66.47h-7.51V61.06h89.89v5.41h-7.82c-24,0-22.55,17.13-18.33,30.66l54.1,130.78L1200,98c5.11-12.93-6.6-31.57-20.44-31.57h-7.51V61.06h74.56v5.41h-7.53c-8.41,0-18.93,19.24-24.64,30.66L1138.68,276h-6.62L1056.61,94.73C1051.79,84.21,1044,66.47,1033.15,66.47Z"/><path class="cls-1" d="M1565,232.76v6.53c0,7-2,10.3-6.28,13.56-2.77,2.27-9.56,3.27-20.11,3.27h-15.48v0h-68.57V169h64.72c4.52.45,7.78,1.26,9.4,2.58,3.94,3,5.79,6,5.79,12.53v6h4.41V133.07h-4.41v6c0,6.49-1.85,9.5-5.79,12.52-2.47,2-8.48,2.93-17.66,3h-15.2v.23h-41.26v-80h66.37V75h14.29c9.74,0,16,.93,18.56,3,4,3,5.8,6,5.8,12.53v6H1564V61.06H1392.93v5.41h7.52c8.72,0,12.33,2.71,16.54,7.82,2.4,3.31,3.91,11.12,3.91,23.75V234.23c0,12.62-1.21,20.44-3.91,23.75-3.91,5.11-7.82,7.51-16.24,7.51h-7.82v5.71h176.84V232.76Z"/><path class="cls-1" d="M363.21,362A19.2,19.2,0,0,0,354.9,364a22.83,22.83,0,0,0-7.17,5.4,26.66,26.66,0,0,0-5,8.23,30.07,30.07,0,0,0,0,20.77,26.71,26.71,0,0,0,5,8.24A22.65,22.65,0,0,0,354.9,412a19.21,19.21,0,0,0,8.31,1.93,20.33,20.33,0,0,0,7.07-1.19,19.3,19.3,0,0,0,5.65-3.22,17.66,17.66,0,0,0,4-4.79,24.68,24.68,0,0,0,2.46-5.85h8.82a36.42,36.42,0,0,1-3.85,8.71,29.84,29.84,0,0,1-6.06,7.12,26.43,26.43,0,0,1-8.15,4.76,28.31,28.31,0,0,1-10,1.7,27.56,27.56,0,0,1-11.58-2.53,30.75,30.75,0,0,1-9.75-7A35.54,35.54,0,0,1,335.14,401a34.9,34.9,0,0,1,0-26.09,35.16,35.16,0,0,1,6.74-10.59,30.59,30.59,0,0,1,9.75-7,27.57,27.57,0,0,1,11.58-2.54,26.26,26.26,0,0,1,17.63,6.46,30.59,30.59,0,0,1,6,7.12,36.21,36.21,0,0,1,3.85,8.71h-8.87a23.71,23.71,0,0,0-2.4-5.85,18.3,18.3,0,0,0-4-4.79,19.3,19.3,0,0,0-5.45-3.21A18.57,18.57,0,0,0,363.21,362Z"/><path class="cls-1" d="M498.2,388A33.39,33.39,0,0,1,495.67,401a35.54,35.54,0,0,1-6.74,10.54,30.64,30.64,0,0,1-9.75,7,27.74,27.74,0,0,1-23.15,0,30.79,30.79,0,0,1-9.76-7A35.31,35.31,0,0,1,439.54,401a34.77,34.77,0,0,1,0-26.09,34.94,34.94,0,0,1,6.73-10.59,30.64,30.64,0,0,1,9.76-7,27.64,27.64,0,0,1,23.15,0,30.49,30.49,0,0,1,9.75,7A35.16,35.16,0,0,1,495.67,375,33.46,33.46,0,0,1,498.2,388Zm-52.89,0a28.46,28.46,0,0,0,1.85,10.38,26.71,26.71,0,0,0,5,8.24,22.65,22.65,0,0,0,7.17,5.39,18.86,18.86,0,0,0,16.62,0,22.31,22.31,0,0,0,7.14-5.39,27.31,27.31,0,0,0,5-8.26,29.72,29.72,0,0,0,0-20.75,27.27,27.27,0,0,0-5-8.23,22.49,22.49,0,0,0-7.14-5.4,18.94,18.94,0,0,0-16.62,0,22.83,22.83,0,0,0-7.17,5.4,26.66,26.66,0,0,0-5,8.23A28.55,28.55,0,0,0,445.31,388Z"/><path class="cls-1" d="M589.57,413.4v7.24H550.16V355.29h8.31V413.4Z"/><path class="cls-1" d="M678.36,413.4v7.24H639V355.29h8.31V413.4Z"/><path class="cls-1" d="M770.29,413.4v7.24H727.73V355.29h41.5v7.24H736v20.78h30.6v7.24H736V413.4Z"/><path class="cls-1" d="M849.7,362a19.19,19.19,0,0,0-8.3,1.92,22.61,22.61,0,0,0-7.17,5.4,26.49,26.49,0,0,0-5,8.23,30.07,30.07,0,0,0,0,20.77,26.54,26.54,0,0,0,5,8.24A22.43,22.43,0,0,0,841.4,412a19.2,19.2,0,0,0,8.3,1.93,20.29,20.29,0,0,0,7.07-1.19,19.17,19.17,0,0,0,5.65-3.22,17.88,17.88,0,0,0,4-4.79,25.54,25.54,0,0,0,2.46-5.85h8.81a36,36,0,0,1-3.85,8.71,29.57,29.57,0,0,1-6,7.12,26.37,26.37,0,0,1-8.16,4.76,28.31,28.31,0,0,1-10,1.7,27.55,27.55,0,0,1-11.57-2.53,30.64,30.64,0,0,1-9.75-7A35.34,35.34,0,0,1,821.64,401a34.77,34.77,0,0,1,0-26.09,35,35,0,0,1,6.74-10.59,30.49,30.49,0,0,1,9.75-7,27.56,27.56,0,0,1,11.57-2.54,26.31,26.31,0,0,1,17.64,6.46,30.31,30.31,0,0,1,6,7.12,35.82,35.82,0,0,1,3.85,8.71h-8.86a23.36,23.36,0,0,0-2.41-5.85,18.11,18.11,0,0,0-4-4.79,19.16,19.16,0,0,0-5.45-3.21A18.53,18.53,0,0,0,849.7,362Z"/><path class="cls-1" d="M970.16,362.53H950.45v58.11h-8.31V362.53H922.43v-7.24h47.73Z"/><path class="cls-1" d="M1028.34,420.64H1020V355.29h8.3Z"/><path class="cls-1" d="M1141.5,388A33.39,33.39,0,0,1,1139,401a35.54,35.54,0,0,1-6.74,10.54,30.64,30.64,0,0,1-9.75,7,27.74,27.74,0,0,1-23.15,0,30.79,30.79,0,0,1-9.76-7,35.54,35.54,0,0,1-6.74-10.54,34.9,34.9,0,0,1,0-26.09,35.16,35.16,0,0,1,6.74-10.59,30.64,30.64,0,0,1,9.76-7,27.64,27.64,0,0,1,23.15,0,30.49,30.49,0,0,1,9.75,7A35.16,35.16,0,0,1,1139,375,33.46,33.46,0,0,1,1141.5,388Zm-52.89,0a28.46,28.46,0,0,0,1.85,10.38,26.71,26.71,0,0,0,5,8.24,22.65,22.65,0,0,0,7.17,5.39,18.86,18.86,0,0,0,16.62,0,22.31,22.31,0,0,0,7.14-5.39,27.31,27.31,0,0,0,5-8.26,29.72,29.72,0,0,0,0-20.75,27.27,27.27,0,0,0-5-8.23,22.49,22.49,0,0,0-7.14-5.4,18.94,18.94,0,0,0-16.62,0,22.83,22.83,0,0,0-7.17,5.4,26.66,26.66,0,0,0-5,8.23A28.55,28.55,0,0,0,1088.61,388Z"/><path class="cls-1" d="M1241.69,355.29v65.35h-7.25l-32.67-49.29v49.29h-8.31V355.29h7.24l32.68,49.29V355.29Z"/></svg>