<svg width="80" height="93" viewBox="0 0 80 93" fill="none" xmlns="http://www.w3.org/2000/svg">
<path d="M79.985 89.3936L72.9599 22.4937C72.8125 21.0932 71.632 20.0297 70.2237 20.0297H57.0196V17.0192C57.0196 7.63517 49.3844 0 40.0003 0C30.6156 0 22.9804 7.63517 22.9804 17.0192V20.0297H9.77628C8.368 20.0297 7.1875 21.0932 7.04011 22.4937L0.014936 89.3936C-0.0661618 90.1687 0.185594 90.9423 0.706735 91.5219C1.22858 92.1009 1.97186 92.4316 2.7511 92.4316H77.2482C78.0281 92.4316 78.7714 92.1009 79.2925 91.5219C79.8151 90.9423 80.0661 90.1687 79.985 89.3936ZM28.4823 17.0192C28.4823 10.6689 33.6493 5.50195 40.0003 5.50195C46.3506 5.50195 51.5176 10.6689 51.5176 17.0192V20.0297H28.4823V17.0192ZM5.80602 86.9297L12.2536 25.5317C21.6266 25.5317 18 25.5317 28.4823 25.5317H51.5176C65.5 25.5317 57.9664 25.5317 67.7463 25.5317L74.194 86.9297H5.80602Z" fill="#E0E0E0"/>
<path fill-rule="evenodd" clip-rule="evenodd" d="M49.8724 71C49.3906 71.6739 48.4567 71.8216 47.7393 71.4074C42.0943 68.1491 36.2431 69.6967 33.0201 71.4331C32.2908 71.8261 31.3541 71.6739 30.8724 71C30.3906 70.3261 30.5434 69.3871 31.2648 68.9799C35.096 66.817 42.4096 64.7005 49.4887 68.9546C50.1988 69.3813 50.3541 70.3261 49.8724 71Z" fill="#E0E0E0"/>
<circle cx="29.5" cy="54.5" r="3.5" fill="#E0E0E0"/>
<circle cx="50.5" cy="54.5" r="3.5" fill="#E0E0E0"/>
</svg>
