<svg id="Layer_1" data-name="Layer 1" xmlns="http://www.w3.org/2000/svg" viewBox="0 0 512 512"><defs><style>.cls-1,.cls-2{fill:#26265c;}.cls-1{fill-rule:evenodd;}</style></defs><path class="cls-1" d="M37,65.55a22.51,22.51,0,0,0,0,45H69.6l.18.57,74,215.39c5.24,18.69,23.12,31.69,41.81,31.69H401.76A45.26,45.26,0,0,0,427.24,350c6.28-4.36,12.77-11.14,15.94-20.09l51.64-134.73c.24-.62.45-1.24.63-1.88,3.86-13.5,2.21-28-5-39.7a42.85,42.85,0,0,0-36.87-20.51H127.1a21.06,21.06,0,0,0-2.12.1L112.62,97.24C107.38,78.55,89.5,65.55,70.81,65.55ZM186.66,312.63,140.42,178.11h312a6,6,0,0,1-.07,2.16L401.39,313.11l-.16.08H186.85c-.06-.19-.13-.37-.19-.56Z"/><path class="cls-2" d="M194.64,470.79a45,45,0,1,0-45-45A45,45,0,0,0,194.64,470.79Z"/><path class="cls-2" d="M397.25,470.79a45,45,0,1,0-45-45A45,45,0,0,0,397.25,470.79Z"/></svg>